<svg preserveAspectRatio="none" overflow="visible" style="display: block;" width="96" height="96" viewBox="0 0 96 96" fill="none" xmlns="http://www.w3.org/2000/svg">
<g id="analysis-spinner">
<rect x="8" y="8" width="80" height="80" rx="40" fill="#F4EEE8"/>
<circle id="pulse-ring" opacity="0.3" cx="48" cy="48" r="47" stroke="#CE7D68" stroke-width="2"/>
<g id="radar">
<path id="Vector" d="M41.3198 36.4527C43.8631 34.9823 46.8208 34.3931 49.7333 34.7764C52.6459 35.1598 55.3504 36.4943 57.4265 38.5727L49.8797 46.1192M37.3329 39.9996H37.3462M35.0533 44.8258C34.5535 46.8619 34.5408 48.9871 35.0163 51.029C35.4918 53.0709 36.4422 54.9719 37.7902 56.5777C39.1382 58.1834 40.8458 59.4486 42.7745 60.2706C44.7032 61.0926 46.7986 61.4482 48.8904 61.3085C50.9823 61.1688 53.0118 60.5378 54.8141 59.4667C56.6164 58.3956 58.1407 56.9146 59.2632 55.1439C60.3858 53.3732 61.0749 51.3627 61.2748 49.2757C61.4746 47.1887 61.1795 45.084 60.4133 43.1325M53.6532 42.3462C52.8859 41.5744 51.9692 40.9673 50.9592 40.562C49.9491 40.1567 48.867 39.9618 47.7791 39.9891C46.6911 40.0165 45.6201 40.2655 44.6317 40.721C43.6433 41.1765 42.7582 41.8289 42.0307 42.6382C41.3031 43.4476 40.7483 44.3969 40.4002 45.428C40.0521 46.4592 39.9181 47.5505 40.0063 48.6352C40.0946 49.7199 40.4032 50.7753 40.9133 51.7366C41.4235 52.6979 42.1244 53.5451 42.9732 54.2262M47.9995 55.9996H48.0129M55.9856 47.5465C56.0581 48.815 55.8275 50.0825 55.3127 51.2442C54.798 52.4058 54.014 53.4281 53.0256 54.2265M50.6662 47.9996C50.6662 49.4724 49.4723 50.6663 47.9995 50.6663C46.5268 50.6663 45.3329 49.4724 45.3329 47.9996C45.3329 46.5269 46.5268 45.333 47.9995 45.333C49.4723 45.333 50.6662 46.5269 50.6662 47.9996Z" stroke="#CE7D68" stroke-width="2" stroke-linecap="round"/>
</g>
</g>
</svg>
